<?xml version="1.0" ?><!-- Uploaded to: SVG Repo, www.svgrepo.com, Generator: SVG Repo Mixer Tools -->
<svg fill="#000000" width="800px" height="800px" viewBox="0 0 32 32" xmlns="http://www.w3.org/2000/svg" id="Layer_1" data-name="Layer 1"><path d="M25.89,7.88V2c0-.41-.34-.75-.75-.75H7.39c-.41,0-.75,.34-.75,.75V7.87l-2.87,3.37s-.03,.06-.05,.09c-.03,.04-.06,.09-.08,.14-.02,.05-.02,.1-.03,.15,0,.03-.02,.07-.02,.1V30c0,.41,.34,.75,.75,.75H22.62s0,0,0,0c0,0,0,0,0,0,.09,0,.19-.02,.28-.06l5.03-2.05c.28-.12,.47-.39,.47-.69V11.73c0-.15-.05-.3-.13-.43l-2.38-3.42Zm-3.64,3.1H5.97l1.68-1.98H23.73l-1.48,1.98ZM8.14,2.75H24.39V7.5H8.14V2.75Zm-3.05,9.73H21.87V29.25H5.1V12.48Zm21.8,14.97l-3.53,1.44V11.98l1.84-2.45,1.69,2.43v15.49Z"/></svg>